<?xml version="1.0" encoding="UTF-8" standalone="no"?>
<!-- Created with Inkscape (http://www.inkscape.org/) -->

<svg
   xmlns:dc="http://purl.org/dc/elements/1.1/"
   xmlns:cc="http://creativecommons.org/ns#"
   xmlns:rdf="http://www.w3.org/1999/02/22-rdf-syntax-ns#"
   xmlns:svg="http://www.w3.org/2000/svg"
   xmlns="http://www.w3.org/2000/svg"
   xmlns:sodipodi="http://sodipodi.sourceforge.net/DTD/sodipodi-0.dtd"
   xmlns:inkscape="http://www.inkscape.org/namespaces/inkscape"
   width="70.009163mm"
   height="9.6989193mm"
   viewBox="0 0 248.06396 34.366249"
   id="svg6689"
   version="1.1"
   inkscape:version="0.91 r13725"
   sodipodi:docname="KBSI.logo.svg">
  <defs
     id="defs6691" />
  <sodipodi:namedview
     id="base"
     pagecolor="#ffffff"
     bordercolor="#666666"
     borderopacity="1.0"
     inkscape:pageopacity="0.0"
     inkscape:pageshadow="2"
     inkscape:zoom="2.8"
     inkscape:cx="229.8138"
     inkscape:cy="-36.470382"
     inkscape:document-units="px"
     inkscape:current-layer="layer1"
     showgrid="false"
     fit-margin-top="0"
     fit-margin-left="0"
     fit-margin-right="0"
     fit-margin-bottom="0"
     inkscape:window-width="3760"
     inkscape:window-height="2121"
     inkscape:window-x="80"
     inkscape:window-y="39"
     inkscape:window-maximized="1" />
  <metadata
     id="metadata6694">
    <rdf:RDF>
      <cc:Work
         rdf:about="">
        <dc:format>image/svg+xml</dc:format>
        <dc:type
           rdf:resource="http://purl.org/dc/dcmitype/StillImage" />
        <dc:title></dc:title>
      </cc:Work>
    </rdf:RDF>
  </metadata>
  <g
     inkscape:label="Layer 1"
     inkscape:groupmode="layer"
     id="layer1"
     transform="translate(1526.8891,733.39235)">
    <path
       d="m -1463.9285,-733.3506 -7.95,0 0,34.26375 7.95,0 0,-34.26375 z"
       style="fill:#004ea2;fill-opacity:1;fill-rule:nonzero;stroke:none"
       id="path4821"
       inkscape:connector-curvature="0" />
    <g
       id="g4823"
       transform="matrix(1.25,0,0,-1.25,-1502.9781,-728.1381)">
      <path
         d="m 0,0 0,-6.832 2.414,0 c 0,0 2.49,0.245 2.49,3.461 0,0 0.155,2.978 -2.254,3.371 L 0,0 Z"
         style="fill:#004ea2;fill-opacity:1;fill-rule:nonzero;stroke:none"
         id="path4825"
         inkscape:connector-curvature="0" />
    </g>
    <g
       id="g4827"
       transform="matrix(1.25,0,0,-1.25,-1503.0831,-714.2776)">
      <path
         d="m 0,0 0,-7.797 2.897,0 c 0,0 2.156,0.19 2.171,3.858 0,0 0.192,3.837 -2.257,3.939 L 0,0 Z"
         style="fill:#004ea2;fill-opacity:1;fill-rule:nonzero;stroke:none"
         id="path4829"
         inkscape:connector-curvature="0" />
    </g>
    <g
       id="g4831"
       transform="matrix(1.25,0,0,-1.25,-1511.4766,-699.0261)">
      <path
         d="m 0,0 7.322,0 -9.012,16.13 8.591,11.347 -6.422,0 -6.436,-8.861 0,8.877 -6.373,0 0,-27.466 6.373,0 0,10.528 0.467,0.586 L 0,0 Z"
         style="fill:#004ea2;fill-opacity:1;fill-rule:nonzero;stroke:none"
         id="path4833"
         inkscape:connector-curvature="0" />
    </g>
    <g
       id="g4835"
       transform="matrix(1.25,0,0,-1.25,-1493.7971,-717.47222)">
      <path
         d="m 0,0 c 0.931,0.24 2.657,0.977 3.194,3.14 0,0 1.103,3.412 -0.718,6.432 0,0 -1.315,2.74 -5.397,3.117 l 11.227,0 c 0,0 4.256,0 5.812,-1.656 0,0 2.311,-1.461 1.609,-7.477 l -6.111,0 c 0,0 0.418,3.645 -0.74,4.77 0,0 -0.398,0.644 -1.605,0.572 0,0 -1.487,0.072 -1.848,-1.678 0,0 -0.176,-1.689 0.19,-2.939 0,0 0.456,-0.897 1.202,-1.381 0,0 5.179,-2.504 5.596,-2.74 0,0 2.961,-1.563 3.449,-4.972 0,0 0.536,-3.584 -0.205,-5.496 0,0 -0.672,-3.031 -4.75,-3.904 0,0 -1.752,-0.568 -4.276,-0.496 l -8.915,0 c 0,0 3.633,-0.117 5.307,3.977 0,0 1.167,2.668 0.535,5.585 l 2.123,0 0,-2.537 c 0,0 0.141,-1.564 0.603,-2.123 0,0 0.533,-0.547 1.567,-0.547 0,0 1.729,-0.068 1.974,1.526 0,0 0.438,2.07 -0.033,3.103 0,0 -0.174,1.088 -2.129,2.086 L 0,0 Z"
         style="fill:#004ea2;fill-opacity:1;fill-rule:nonzero;stroke:none"
         id="path4837"
         inkscape:connector-curvature="0" />
    </g>
    <g
       id="g4839"
       transform="matrix(1.25,0,0,-1.25,-1443.5098,-718.60135)">
      <path
         d="M 0,0 -4.028,4.975 C -4.21,4.812 -4.396,4.643 -4.587,4.466 -4.778,4.289 -4.941,4.144 -5.075,4.028 l 0,-4.013 -1.849,0 0,10.765 1.849,0 0,-4.429 c 0.65,0.621 1.377,1.337 2.179,2.15 0.803,0.812 1.496,1.577 2.079,2.293 l 2.251,0 C 0.764,9.953 0.062,9.144 -0.674,8.364 -1.41,7.586 -2.088,6.881 -2.709,6.25 L 2.222,0 0,0 Z"
         style="fill:#231916;fill-opacity:1;fill-rule:nonzero;stroke:none"
         id="path4841"
         inkscape:connector-curvature="0" />
    </g>
    <g
       id="g4843"
       transform="matrix(1.25,0,0,-1.25,-1431.5853,-721.80085)">
      <path
         d="M 0,0 C 0.53,0.74 0.795,1.688 0.795,2.845 0.795,3.982 0.53,4.919 0,5.654 -0.53,6.391 -1.25,6.759 -2.158,6.759 -3.084,6.759 -3.809,6.391 -4.329,5.654 -4.85,4.919 -5.11,3.982 -5.11,2.845 -5.11,1.688 -4.85,0.74 -4.329,0 c 0.52,-0.741 1.245,-1.111 2.171,-1.111 0.908,0 1.628,0.37 2.158,1.111 M 1.426,6.931 C 2.315,5.879 2.759,4.518 2.759,2.845 c 0,-1.672 -0.444,-3.036 -1.333,-4.092 -0.888,-1.057 -2.083,-1.584 -3.584,-1.584 -1.5,0 -2.697,0.527 -3.591,1.584 -0.893,1.056 -1.339,2.42 -1.339,4.092 0,1.673 0.446,3.034 1.339,4.086 0.894,1.05 2.091,1.576 3.591,1.576 1.501,0 2.696,-0.526 3.584,-1.576"
         style="fill:#231916;fill-opacity:1;fill-rule:nonzero;stroke:none"
         id="path4845"
         inkscape:connector-curvature="0" />
    </g>
    <g
       id="g4847"
       transform="matrix(1.25,0,0,-1.25,-1419.4009,-726.57497)">
      <path
         d="M 0,0 C 0.387,0.259 0.581,0.65 0.581,1.176 0.581,1.683 0.387,2.066 0,2.33 -0.387,2.593 -0.863,2.724 -1.426,2.724 l -2.308,0 0,-3.096 2.308,-0.015 c 0.563,0 1.039,0.129 1.426,0.387 m 0.91,-6.393 -2.967,4.186 -1.62,0 0,-4.186 -1.864,0 0,10.794 4.43,0 C -0.107,4.401 0.75,4.091 1.462,3.47 2.174,2.848 2.53,2.084 2.53,1.176 2.53,0.421 2.298,-0.263 1.835,-0.874 1.371,-1.485 0.8,-1.877 0.122,-2.05 l 3.067,-4.343 -2.279,0 z"
         style="fill:#231916;fill-opacity:1;fill-rule:nonzero;stroke:none"
         id="path4849"
         inkscape:connector-curvature="0" />
    </g>
    <g
       id="g4851"
       transform="matrix(1.25,0,0,-1.25,-1414.3575,-718.6196)">
      <path
         d="m 0,0 0,10.766 7.511,0 0,-1.735 -5.662,0 0,-2.667 5.39,0 0,-1.719 -5.39,0 0,-2.911 5.82,0.015 L 7.669,0 0,0 Z"
         style="fill:#231916;fill-opacity:1;fill-rule:nonzero;stroke:none"
         id="path4853"
         inkscape:connector-curvature="0" />
    </g>
    <g
       id="g4855"
       transform="matrix(1.25,0,0,-1.25,-1397.6936,-729.35335)">
      <path
         d="m 0,0 -1.691,-4.43 3.354,0 L 0,0 Z m -3.282,-8.587 -1.921,0 4.114,10.794 2.164,0 4.129,-10.779 -1.95,0 -0.932,2.436 -4.673,0 -0.931,-2.451 z"
         style="fill:#231916;fill-opacity:1;fill-rule:nonzero;stroke:none"
         id="path4857"
         inkscape:connector-curvature="0" />
    </g>
    <g
       id="g4859"
       transform="matrix(1.25,0,0,-1.25,-1376.5865,-721.36135)">
      <path
         d="m 0,0 c 0.296,0.306 0.444,0.654 0.444,1.047 0,0.382 -0.143,0.728 -0.429,1.039 -0.287,0.31 -0.765,0.466 -1.434,0.466 l -2.709,0 0,-3.011 2.651,0 C -0.788,-0.459 -0.296,-0.306 0,0 M -0.423,4.63 C -0.141,4.859 0,5.18 0,5.591 0,5.953 -0.143,6.252 -0.43,6.486 -0.717,6.721 -1.113,6.838 -1.62,6.838 l -2.508,0 0,-2.552 2.494,0 c 0.526,0 0.929,0.114 1.211,0.344 M 1.878,2.616 C 2.289,2.143 2.47,1.51 2.423,0.717 2.375,-0.134 2,-0.831 1.297,-1.376 0.595,-1.921 -0.287,-2.193 -1.347,-2.193 l -4.645,0 0,10.779 4.63,0 c 0.956,0 1.723,-0.243 2.301,-0.731 C 1.517,7.368 1.854,6.799 1.95,6.149 2.055,5.48 1.957,4.924 1.656,4.479 1.355,4.035 1.042,3.722 0.717,3.541 1.08,3.397 1.467,3.089 1.878,2.616"
         style="fill:#231916;fill-opacity:1;fill-rule:nonzero;stroke:none"
         id="path4861"
         inkscape:connector-curvature="0" />
    </g>
    <g
       id="g4863"
       transform="matrix(1.25,0,0,-1.25,-1366.4271,-729.35335)">
      <path
         d="m 0,0 -1.691,-4.43 3.354,0 L 0,0 Z m -3.282,-8.587 -1.921,0 4.114,10.794 2.164,0 4.129,-10.779 -1.95,0 -0.932,2.436 -4.673,0 -0.931,-2.451 z"
         style="fill:#231916;fill-opacity:1;fill-rule:nonzero;stroke:none"
         id="path4865"
         inkscape:connector-curvature="0" />
    </g>
    <g
       id="g4867"
       transform="matrix(1.25,0,0,-1.25,-1349.5216,-724.21897)">
      <path
         d="m 0,0 c 0.33,-0.492 0.461,-1.072 0.395,-1.741 -0.067,-0.803 -0.459,-1.513 -1.176,-2.129 -0.717,-0.616 -1.706,-0.925 -2.967,-0.925 -1.357,0 -2.435,0.433 -3.233,1.298 -0.798,0.864 -1.173,1.756 -1.125,2.673 l 1.835,0 c 0,-0.612 0.244,-1.135 0.731,-1.57 0.487,-0.435 1.084,-0.652 1.792,-0.652 0.649,0 1.149,0.119 1.498,0.358 0.349,0.239 0.566,0.55 0.652,0.932 0.077,0.344 0.021,0.643 -0.165,0.896 -0.186,0.254 -0.447,0.457 -0.781,0.609 C -3.013,-0.012 -3.5,0.15 -4.006,0.236 -4.513,0.322 -5.043,0.48 -5.598,0.71 -6.286,0.987 -6.823,1.366 -7.21,1.85 c -0.387,0.482 -0.557,1.087 -0.509,1.813 0.048,0.678 0.382,1.335 1.004,1.971 0.621,0.636 1.576,0.953 2.866,0.953 1.453,0 2.482,-0.438 3.09,-1.312 0.606,-0.874 0.886,-1.627 0.838,-2.257 l -1.835,0 c -0.01,0.477 -0.179,0.9 -0.509,1.268 -0.329,0.368 -0.848,0.552 -1.555,0.552 -0.717,0 -1.209,-0.139 -1.476,-0.415 C -5.564,4.146 -5.708,3.849 -5.727,3.533 -5.755,3.17 -5.624,2.882 -5.332,2.666 -5.041,2.451 -4.718,2.277 -4.365,2.144 -3.982,2.01 -3.512,1.88 -2.953,1.756 -2.394,1.632 -1.828,1.422 -1.254,1.125 -0.748,0.867 -0.33,0.492 0,0"
         style="fill:#231916;fill-opacity:1;fill-rule:nonzero;stroke:none"
         id="path4869"
         inkscape:connector-curvature="0" />
    </g>
    <path
       d="m -1346.9498,-732.07685 2.2938,0 0,13.4575 -2.2938,0 0,-13.4575 z"
       style="fill:#231916;fill-opacity:1;fill-rule:nonzero;stroke:none"
       id="path4871"
       inkscape:connector-curvature="0" />
    <g
       id="g4873"
       transform="matrix(1.25,0,0,-1.25,-1330.6801,-723.0996)">
      <path
         d="m 0,0 c -0.172,-0.841 -0.643,-1.696 -1.412,-2.566 -0.769,-0.87 -1.861,-1.304 -3.276,-1.304 -1.519,0 -2.721,0.527 -3.604,1.584 -0.885,1.056 -1.327,2.42 -1.327,4.092 0,1.673 0.442,3.034 1.327,4.086 0.883,1.05 2.085,1.576 3.604,1.576 1.482,0 2.595,-0.447 3.34,-1.34 0.746,-0.894 1.181,-1.699 1.305,-2.415 L -2.064,3.698 C -2.179,4.147 -2.435,4.597 -2.831,5.046 -3.228,5.495 -3.827,5.72 -4.63,5.72 -5.547,5.72 -6.279,5.361 -6.823,4.645 -7.368,3.928 -7.64,2.981 -7.64,1.806 c 0,-1.185 0.272,-2.141 0.817,-2.867 0.544,-0.726 1.276,-1.089 2.193,-1.089 0.764,0 1.359,0.236 1.785,0.71 0.425,0.472 0.704,0.953 0.838,1.44 L 0,0 Z"
         style="fill:#231916;fill-opacity:1;fill-rule:nonzero;stroke:none"
         id="path4875"
         inkscape:connector-curvature="0" />
    </g>
    <g
       id="g4877"
       transform="matrix(1.25,0,0,-1.25,-1442.8023,-705.76072)">
      <path
         d="m 0,0 c 0.33,-0.492 0.461,-1.072 0.395,-1.741 -0.067,-0.803 -0.459,-1.513 -1.176,-2.129 -0.717,-0.616 -1.706,-0.925 -2.967,-0.925 -1.357,0 -2.435,0.433 -3.233,1.298 -0.798,0.864 -1.173,1.756 -1.125,2.673 l 1.835,0 c 0,-0.612 0.244,-1.135 0.731,-1.57 0.487,-0.435 1.084,-0.652 1.792,-0.652 0.649,0 1.149,0.119 1.498,0.358 0.349,0.239 0.566,0.55 0.652,0.932 0.077,0.344 0.021,0.643 -0.165,0.896 -0.186,0.254 -0.447,0.457 -0.781,0.609 C -3.013,-0.012 -3.5,0.15 -4.006,0.236 -4.513,0.322 -5.043,0.48 -5.598,0.71 -6.286,0.987 -6.823,1.366 -7.21,1.85 c -0.387,0.482 -0.557,1.087 -0.509,1.813 0.048,0.678 0.382,1.335 1.004,1.971 0.621,0.636 1.576,0.953 2.866,0.953 1.453,0 2.482,-0.438 3.09,-1.312 0.606,-0.874 0.886,-1.627 0.838,-2.257 l -1.835,0 c -0.01,0.477 -0.179,0.9 -0.509,1.268 -0.329,0.368 -0.848,0.552 -1.555,0.552 -0.717,0 -1.209,-0.139 -1.476,-0.415 C -5.564,4.146 -5.708,3.849 -5.727,3.533 -5.755,3.17 -5.624,2.882 -5.332,2.666 -5.041,2.451 -4.718,2.277 -4.365,2.144 -3.982,2.01 -3.512,1.88 -2.953,1.756 -2.394,1.632 -1.828,1.422 -1.254,1.125 -0.748,0.867 -0.33,0.492 0,0"
         style="fill:#231916;fill-opacity:1;fill-rule:nonzero;stroke:none"
         id="path4879"
         inkscape:connector-curvature="0" />
    </g>
    <g
       id="g4881"
       transform="matrix(1.25,0,0,-1.25,-1429.1036,-704.64135)">
      <path
         d="m 0,0 c -0.172,-0.841 -0.643,-1.696 -1.412,-2.566 -0.769,-0.87 -1.861,-1.304 -3.276,-1.304 -1.519,0 -2.721,0.527 -3.604,1.584 -0.885,1.056 -1.327,2.42 -1.327,4.092 0,1.673 0.442,3.034 1.327,4.086 0.883,1.05 2.085,1.576 3.604,1.576 1.482,0 2.595,-0.447 3.34,-1.34 0.746,-0.894 1.181,-1.699 1.305,-2.415 L -2.064,3.698 C -2.179,4.147 -2.435,4.597 -2.831,5.046 -3.228,5.495 -3.827,5.72 -4.63,5.72 -5.547,5.72 -6.279,5.361 -6.823,4.645 -7.368,3.928 -7.64,2.981 -7.64,1.806 c 0,-1.185 0.272,-2.141 0.817,-2.867 0.544,-0.726 1.276,-1.089 2.193,-1.089 0.764,0 1.359,0.236 1.785,0.71 0.425,0.472 0.704,0.953 0.838,1.44 L 0,0 Z"
         style="fill:#231916;fill-opacity:1;fill-rule:nonzero;stroke:none"
         id="path4883"
         inkscape:connector-curvature="0" />
    </g>
    <path
       d="m -1427.151,-713.6181 2.2937,0 0,13.4575 -2.2937,0 0,-13.4575 z"
       style="fill:#231916;fill-opacity:1;fill-rule:nonzero;stroke:none"
       id="path4885"
       inkscape:connector-curvature="0" />
    <g
       id="g4887"
       transform="matrix(1.25,0,0,-1.25,-1422.3665,-700.16135)">
      <path
         d="m 0,0 0,10.766 7.511,0 0,-1.735 -5.662,0 0,-2.667 5.39,0 0,-1.719 -5.39,0 0,-2.911 5.82,0.015 L 7.669,0 0,0 Z"
         style="fill:#231916;fill-opacity:1;fill-rule:nonzero;stroke:none"
         id="path4889"
         inkscape:connector-curvature="0" />
    </g>
    <g
       id="g4891"
       transform="matrix(1.25,0,0,-1.25,-1403.3559,-700.12597)">
      <path
         d="M 0,0 -4.271,7.684 -4.3,0 l -1.892,0 0,10.794 2.25,0 4.343,-7.684 0,7.684 1.878,0 L 2.279,0 0,0 Z"
         style="fill:#231916;fill-opacity:1;fill-rule:nonzero;stroke:none"
         id="path4893"
         inkscape:connector-curvature="0" />
    </g>
    <g
       id="g4895"
       transform="matrix(1.25,0,0,-1.25,-1386.6915,-704.64135)">
      <path
         d="m 0,0 c -0.172,-0.841 -0.643,-1.696 -1.412,-2.566 -0.769,-0.87 -1.861,-1.304 -3.276,-1.304 -1.519,0 -2.721,0.527 -3.604,1.584 -0.885,1.056 -1.327,2.42 -1.327,4.092 0,1.673 0.442,3.034 1.327,4.086 0.883,1.05 2.085,1.576 3.604,1.576 1.482,0 2.595,-0.447 3.34,-1.34 0.746,-0.894 1.181,-1.699 1.305,-2.415 L -2.064,3.698 C -2.179,4.147 -2.435,4.597 -2.831,5.046 -3.228,5.495 -3.827,5.72 -4.63,5.72 -5.547,5.72 -6.279,5.361 -6.823,4.645 -7.368,3.928 -7.64,2.981 -7.64,1.806 c 0,-1.185 0.272,-2.141 0.817,-2.867 0.544,-0.726 1.276,-1.089 2.193,-1.089 0.764,0 1.359,0.236 1.785,0.71 0.425,0.472 0.704,0.953 0.838,1.44 L 0,0 Z"
         style="fill:#231916;fill-opacity:1;fill-rule:nonzero;stroke:none"
         id="path4897"
         inkscape:connector-curvature="0" />
    </g>
    <g
       id="g4899"
       transform="matrix(1.25,0,0,-1.25,-1385.0973,-700.16135)">
      <path
         d="m 0,0 0,10.766 7.511,0 0,-1.735 -5.662,0 0,-2.667 5.39,0 0,-1.719 -5.39,0 0,-2.911 5.82,0.015 L 7.669,0 0,0 Z"
         style="fill:#231916;fill-opacity:1;fill-rule:nonzero;stroke:none"
         id="path4901"
         inkscape:connector-curvature="0" />
    </g>
    <path
       d="m -1367.376,-713.6181 2.2937,0 0,13.4575 -2.2937,0 0,-13.4575 z"
       style="fill:#231916;fill-opacity:1;fill-rule:nonzero;stroke:none"
       id="path4903"
       inkscape:connector-curvature="0" />
    <g
       id="g4905"
       transform="matrix(1.25,0,0,-1.25,-1354.8519,-700.12597)">
      <path
         d="M 0,0 -4.271,7.684 -4.3,0 l -1.892,0 0,10.794 2.25,0 4.343,-7.684 0,7.684 1.878,0 L 2.279,0 0,0 Z"
         style="fill:#231916;fill-opacity:1;fill-rule:nonzero;stroke:none"
         id="path4907"
         inkscape:connector-curvature="0" />
    </g>
    <g
       id="g4909"
       transform="matrix(1.25,0,0,-1.25,-1340.2938,-705.76072)">
      <path
         d="m 0,0 c 0.33,-0.492 0.461,-1.072 0.395,-1.741 -0.067,-0.803 -0.459,-1.513 -1.176,-2.129 -0.717,-0.616 -1.706,-0.925 -2.967,-0.925 -1.357,0 -2.435,0.433 -3.233,1.298 -0.798,0.864 -1.173,1.756 -1.125,2.673 l 1.835,0 c 0,-0.612 0.244,-1.135 0.731,-1.57 0.487,-0.435 1.084,-0.652 1.792,-0.652 0.649,0 1.149,0.119 1.498,0.358 0.349,0.239 0.566,0.55 0.652,0.932 0.077,0.344 0.021,0.643 -0.165,0.896 -0.186,0.254 -0.447,0.457 -0.781,0.609 C -3.013,-0.012 -3.5,0.15 -4.006,0.236 -4.513,0.322 -5.043,0.48 -5.598,0.71 -6.286,0.987 -6.823,1.366 -7.21,1.85 c -0.387,0.482 -0.557,1.087 -0.509,1.813 0.048,0.678 0.382,1.335 1.004,1.971 0.621,0.636 1.576,0.953 2.866,0.953 1.453,0 2.482,-0.438 3.09,-1.312 0.606,-0.874 0.886,-1.627 0.838,-2.257 l -1.835,0 c -0.01,0.477 -0.179,0.9 -0.509,1.268 -0.329,0.368 -0.848,0.552 -1.555,0.552 -0.717,0 -1.209,-0.139 -1.476,-0.415 C -5.564,4.146 -5.708,3.849 -5.727,3.533 -5.755,3.17 -5.624,2.882 -5.332,2.666 -5.041,2.451 -4.718,2.277 -4.365,2.144 -3.982,2.01 -3.512,1.88 -2.953,1.756 -2.394,1.632 -1.828,1.422 -1.254,1.125 -0.748,0.867 -0.33,0.492 0,0"
         style="fill:#231916;fill-opacity:1;fill-rule:nonzero;stroke:none"
         id="path4911"
         inkscape:connector-curvature="0" />
    </g>
    <g
       id="g4913"
       transform="matrix(1.25,0,0,-1.25,-1332.6333,-711.41385)">
      <path
         d="m 0,0 0,-9.06 -1.878,0.015 0,9.045 -3.354,0 0,1.721 8.586,0 L 3.354,0 0,0 Z"
         style="fill:#231916;fill-opacity:1;fill-rule:nonzero;stroke:none"
         id="path4915"
         inkscape:connector-curvature="0" />
    </g>
    <path
       d="m -1326.9535,-713.6181 2.2937,0 0,13.4575 -2.2937,0 0,-13.4575 z"
       style="fill:#231916;fill-opacity:1;fill-rule:nonzero;stroke:none"
       id="path4917"
       inkscape:connector-curvature="0" />
    <g
       id="g4919"
       transform="matrix(1.25,0,0,-1.25,-1316.722,-711.41385)">
      <path
         d="m 0,0 0,-9.06 -1.878,0.015 0,9.045 -3.354,0 0,1.721 8.586,0 L 3.354,0 0,0 Z"
         style="fill:#231916;fill-opacity:1;fill-rule:nonzero;stroke:none"
         id="path4921"
         inkscape:connector-curvature="0" />
    </g>
    <g
       id="g4923"
       transform="matrix(1.25,0,0,-1.25,-1301.0256,-704.4266)">
      <path
         d="m 0,0 c 0,-1.1 -0.38,-1.993 -1.14,-2.681 -0.759,-0.688 -1.779,-1.032 -3.06,-1.032 -1.29,0 -2.31,0.344 -3.061,1.032 C -8.011,-1.993 -8.386,-1.1 -8.386,0 l 0.014,7.339 1.878,0 0,-6.838 c 0,-0.583 0.127,-1.142 0.38,-1.677 0.253,-0.535 0.891,-0.803 1.914,-0.803 1.022,0 1.663,0.27 1.921,0.81 0.258,0.54 0.387,1.097 0.387,1.67 L -1.907,7.339 0,7.339 0,0 Z"
         style="fill:#231916;fill-opacity:1;fill-rule:nonzero;stroke:none"
         id="path4925"
         inkscape:connector-curvature="0" />
    </g>
    <g
       id="g4927"
       transform="matrix(1.25,0,0,-1.25,-1293.3749,-711.41385)">
      <path
         d="m 0,0 0,-9.06 -1.878,0.015 0,9.045 -3.354,0 0,1.721 8.586,0 L 3.354,0 0,0 Z"
         style="fill:#231916;fill-opacity:1;fill-rule:nonzero;stroke:none"
         id="path4929"
         inkscape:connector-curvature="0" />
    </g>
    <g
       id="g4931"
       transform="matrix(1.25,0,0,-1.25,-1288.4114,-700.16135)">
      <path
         d="m 0,0 0,10.766 7.511,0 0,-1.735 -5.662,0 0,-2.667 5.39,0 0,-1.719 -5.39,0 0,-2.911 5.82,0.015 L 7.669,0 0,0 Z"
         style="fill:#231916;fill-opacity:1;fill-rule:nonzero;stroke:none"
         id="path4933"
         inkscape:connector-curvature="0" />
    </g>
  </g>
</svg>
