<?xml version="1.0" encoding="UTF-8" standalone="no"?>
<!-- Created with Inkscape (http://www.inkscape.org/) -->

<svg
   xmlns:dc="http://purl.org/dc/elements/1.1/"
   xmlns:cc="http://creativecommons.org/ns#"
   xmlns:rdf="http://www.w3.org/1999/02/22-rdf-syntax-ns#"
   xmlns:svg="http://www.w3.org/2000/svg"
   xmlns="http://www.w3.org/2000/svg"
   xmlns:sodipodi="http://sodipodi.sourceforge.net/DTD/sodipodi-0.dtd"
   xmlns:inkscape="http://www.inkscape.org/namespaces/inkscape"
   width="70.009186mm"
   height="9.6989193mm"
   viewBox="0 0 248.06404 34.366249"
   id="svg7557"
   version="1.1"
   inkscape:version="0.91 r13725"
   sodipodi:docname="KBSI.logo.white.svg">
  <defs
     id="defs7559" />
  <sodipodi:namedview
     id="base"
     pagecolor="#ffffff"
     bordercolor="#666666"
     borderopacity="1.0"
     inkscape:pageopacity="0.0"
     inkscape:pageshadow="2"
     inkscape:zoom="5.6"
     inkscape:cx="92.374309"
     inkscape:cy="34.748175"
     inkscape:document-units="px"
     inkscape:current-layer="layer1"
     showgrid="false"
     fit-margin-top="0"
     fit-margin-left="0"
     fit-margin-right="0"
     fit-margin-bottom="0"
     inkscape:window-width="3760"
     inkscape:window-height="2121"
     inkscape:window-x="80"
     inkscape:window-y="39"
     inkscape:window-maximized="1" />
  <metadata
     id="metadata7562">
    <rdf:RDF>
      <cc:Work
         rdf:about="">
        <dc:format>image/svg+xml</dc:format>
        <dc:type
           rdf:resource="http://purl.org/dc/dcmitype/StillImage" />
        <dc:title></dc:title>
      </cc:Work>
    </rdf:RDF>
  </metadata>
  <g
     inkscape:label="Layer 1"
     inkscape:groupmode="layer"
     id="layer1"
     transform="translate(515.4606,253.39235)">
    <path
       d="m -452.5016,-253.3506 -7.94875,0 0,34.26375 7.94875,0 0,-34.26375 z"
       style="fill:#ffffff;fill-opacity:1;fill-rule:nonzero;stroke:none"
       id="path5923"
       inkscape:connector-curvature="0" />
    <g
       id="g5925"
       transform="matrix(1.25,0,0,-1.25,-491.5496,-248.1381)"
       style="fill:#ffffff;fill-opacity:1">
      <path
         d="m 0,0 0,-6.832 2.414,0 c 0,0 2.49,0.245 2.49,3.461 0,0 0.155,2.978 -2.254,3.371 L 0,0 Z"
         style="fill:#ffffff;fill-opacity:1;fill-rule:nonzero;stroke:none"
         id="path5927"
         inkscape:connector-curvature="0" />
    </g>
    <g
       id="g5929"
       transform="matrix(1.25,0,0,-1.25,-491.65447,-234.2776)"
       style="fill:#ffffff;fill-opacity:1">
      <path
         d="m 0,0 0,-7.797 2.896,0 c 0,0 2.157,0.19 2.172,3.858 0,0 0.192,3.837 -2.257,3.939 L 0,0 Z"
         style="fill:#ffffff;fill-opacity:1;fill-rule:nonzero;stroke:none"
         id="path5931"
         inkscape:connector-curvature="0" />
    </g>
    <g
       id="g5933"
       transform="matrix(1.25,0,0,-1.25,-500.0481,-219.0261)"
       style="fill:#ffffff;fill-opacity:1">
      <path
         d="m 0,0 7.322,0 -9.013,16.13 8.591,11.347 -6.421,0 -6.436,-8.861 0,8.877 -6.373,0 0,-27.466 6.373,0 0,10.528 0.467,0.586 L 0,0 Z"
         style="fill:#ffffff;fill-opacity:1;fill-rule:nonzero;stroke:none"
         id="path5935"
         inkscape:connector-curvature="0" />
    </g>
    <g
       id="g5937"
       transform="matrix(1.25,0,0,-1.25,-482.36985,-237.47222)"
       style="fill:#ffffff;fill-opacity:1">
      <path
         d="m 0,0 c 0.932,0.24 2.658,0.977 3.195,3.14 0,0 1.102,3.412 -0.718,6.432 0,0 -1.315,2.74 -5.397,3.117 l 11.227,0 c 0,0 4.256,0 5.812,-1.656 0,0 2.311,-1.461 1.608,-7.477 l -6.11,0 c 0,0 0.418,3.645 -0.74,4.77 0,0 -0.398,0.644 -1.606,0.572 0,0 -1.486,0.072 -1.847,-1.678 0,0 -0.176,-1.689 0.189,-2.939 0,0 0.457,-0.897 1.203,-1.381 0,0 5.178,-2.504 5.596,-2.74 0,0 2.961,-1.563 3.449,-4.972 0,0 0.535,-3.584 -0.205,-5.496 0,0 -0.672,-3.031 -4.75,-3.904 0,0 -1.752,-0.568 -4.277,-0.496 l -8.914,0 c 0,0 3.633,-0.117 5.306,3.977 0,0 1.167,2.668 0.536,5.585 l 2.123,0 0,-2.537 c 0,0 0.14,-1.564 0.603,-2.123 0,0 0.533,-0.547 1.567,-0.547 0,0 1.728,-0.068 1.974,1.526 0,0 0.438,2.07 -0.033,3.103 0,0 -0.174,1.088 -2.129,2.086 L 0,0 Z"
         style="fill:#ffffff;fill-opacity:1;fill-rule:nonzero;stroke:none"
         id="path5939"
         inkscape:connector-curvature="0" />
    </g>
    <g
       id="g5941"
       transform="matrix(1.25,0,0,-1.25,-432.08172,-238.60135)"
       style="fill:#ffffff;fill-opacity:1">
      <path
         d="M 0,0 -4.028,4.975 C -4.21,4.812 -4.396,4.643 -4.587,4.466 -4.778,4.289 -4.941,4.144 -5.074,4.028 l 0,-4.013 -1.85,0 0,10.765 1.85,0 0,-4.429 c 0.649,0.621 1.376,1.337 2.178,2.15 0.803,0.812 1.496,1.577 2.079,2.293 l 2.251,0 C 0.764,9.953 0.063,9.144 -0.674,8.364 -1.41,7.586 -2.088,6.881 -2.709,6.25 L 2.222,0 0,0 Z"
         style="fill:#ffffff;fill-opacity:1;fill-rule:nonzero;stroke:none"
         id="path5943"
         inkscape:connector-curvature="0" />
    </g>
    <g
       id="g5945"
       transform="matrix(1.25,0,0,-1.25,-420.15798,-241.80085)"
       style="fill:#ffffff;fill-opacity:1">
      <path
         d="M 0,0 C 0.531,0.74 0.796,1.688 0.796,2.845 0.796,3.982 0.531,4.919 0,5.654 -0.529,6.391 -1.249,6.759 -2.157,6.759 -3.084,6.759 -3.809,6.391 -4.328,5.654 -4.85,4.919 -5.109,3.982 -5.109,2.845 -5.109,1.688 -4.85,0.74 -4.328,0 c 0.519,-0.741 1.244,-1.111 2.171,-1.111 0.908,0 1.628,0.37 2.157,1.111 M 1.427,6.931 C 2.315,5.879 2.76,4.518 2.76,2.845 2.76,1.173 2.315,-0.191 1.427,-1.247 0.538,-2.304 -0.656,-2.831 -2.157,-2.831 c -1.5,0 -2.697,0.527 -3.591,1.584 -0.894,1.056 -1.34,2.42 -1.34,4.092 0,1.673 0.446,3.034 1.34,4.086 0.894,1.05 2.091,1.576 3.591,1.576 1.501,0 2.695,-0.526 3.584,-1.576"
         style="fill:#ffffff;fill-opacity:1;fill-rule:nonzero;stroke:none"
         id="path5947"
         inkscape:connector-curvature="0" />
    </g>
    <g
       id="g5949"
       transform="matrix(1.25,0,0,-1.25,-407.97285,-246.57497)"
       style="fill:#ffffff;fill-opacity:1">
      <path
         d="M 0,0 C 0.387,0.259 0.58,0.65 0.58,1.176 0.58,1.683 0.387,2.066 0,2.33 -0.387,2.593 -0.863,2.724 -1.426,2.724 l -2.308,0 0,-3.096 2.308,-0.015 c 0.563,0 1.039,0.129 1.426,0.387 m 0.91,-6.393 -2.967,4.186 -1.62,0 0,-4.186 -1.864,0 0,10.794 4.43,0 C -0.107,4.401 0.75,4.091 1.462,3.47 2.174,2.848 2.529,2.084 2.529,1.176 2.529,0.421 2.299,-0.263 1.835,-0.874 1.371,-1.485 0.801,-1.877 0.121,-2.05 l 3.068,-4.343 -2.279,0 z"
         style="fill:#ffffff;fill-opacity:1;fill-rule:nonzero;stroke:none"
         id="path5951"
         inkscape:connector-curvature="0" />
    </g>
    <g
       id="g5953"
       transform="matrix(1.25,0,0,-1.25,-402.92898,-238.6196)"
       style="fill:#ffffff;fill-opacity:1">
      <path
         d="m 0,0 0,10.766 7.511,0 0,-1.735 -5.662,0 0,-2.667 5.389,0 0,-1.719 -5.389,0 0,-2.911 L 7.668,1.749 7.668,0 0,0 Z"
         style="fill:#ffffff;fill-opacity:1;fill-rule:nonzero;stroke:none"
         id="path5955"
         inkscape:connector-curvature="0" />
    </g>
    <g
       id="g5957"
       transform="matrix(1.25,0,0,-1.25,-386.26635,-249.35335)"
       style="fill:#ffffff;fill-opacity:1">
      <path
         d="m 0,0 -1.691,-4.43 3.355,0 L 0,0 Z m -3.281,-8.587 -1.922,0 4.114,10.794 2.165,0 4.128,-10.779 -1.949,0 -0.933,2.436 -4.672,0 -0.931,-2.451 z"
         style="fill:#ffffff;fill-opacity:1;fill-rule:nonzero;stroke:none"
         id="path5959"
         inkscape:connector-curvature="0" />
    </g>
    <g
       id="g5961"
       transform="matrix(1.25,0,0,-1.25,-365.15798,-241.36135)"
       style="fill:#ffffff;fill-opacity:1">
      <path
         d="m 0,0 c 0.296,0.306 0.443,0.654 0.443,1.047 0,0.382 -0.142,0.728 -0.429,1.039 -0.287,0.31 -0.764,0.466 -1.434,0.466 l -2.709,0 0,-3.011 2.652,0 c 0.688,0 1.18,0.153 1.477,0.459 M -0.424,4.63 C -0.142,4.859 0,5.18 0,5.591 0,5.953 -0.144,6.252 -0.43,6.486 -0.717,6.721 -1.113,6.838 -1.62,6.838 l -2.509,0 0,-2.552 2.494,0 c 0.526,0 0.93,0.114 1.211,0.344 M 1.877,2.616 C 2.288,2.143 2.47,1.51 2.422,0.717 2.374,-0.134 2,-0.831 1.297,-1.376 0.595,-1.921 -0.287,-2.193 -1.348,-2.193 l -4.644,0 0,10.779 4.63,0 c 0.956,0 1.722,-0.243 2.3,-0.731 C 1.517,7.368 1.854,6.799 1.949,6.149 2.055,5.48 1.957,4.924 1.655,4.479 1.354,4.035 1.041,3.722 0.717,3.541 1.08,3.397 1.467,3.089 1.877,2.616"
         style="fill:#ffffff;fill-opacity:1;fill-rule:nonzero;stroke:none"
         id="path5963"
         inkscape:connector-curvature="0" />
    </g>
    <g
       id="g5965"
       transform="matrix(1.25,0,0,-1.25,-354.99925,-249.35335)"
       style="fill:#ffffff;fill-opacity:1">
      <path
         d="m 0,0 -1.691,-4.43 3.354,0 L 0,0 Z m -3.282,-8.587 -1.921,0 4.113,10.794 2.165,0 4.128,-10.779 -1.949,0 -0.932,2.436 -4.673,0 -0.931,-2.451 z"
         style="fill:#ffffff;fill-opacity:1;fill-rule:nonzero;stroke:none"
         id="path5967"
         inkscape:connector-curvature="0" />
    </g>
    <g
       id="g5969"
       transform="matrix(1.25,0,0,-1.25,-338.09375,-244.21897)"
       style="fill:#ffffff;fill-opacity:1">
      <path
         d="m 0,0 c 0.33,-0.492 0.461,-1.072 0.395,-1.741 -0.068,-0.803 -0.459,-1.513 -1.176,-2.129 -0.716,-0.616 -1.706,-0.925 -2.967,-0.925 -1.357,0 -2.435,0.433 -3.233,1.298 -0.797,0.864 -1.172,1.756 -1.125,2.673 l 1.835,0 c 0,-0.612 0.244,-1.135 0.731,-1.57 0.487,-0.435 1.084,-0.652 1.792,-0.652 0.649,0 1.149,0.119 1.497,0.358 0.35,0.239 0.566,0.55 0.652,0.932 0.078,0.344 0.022,0.643 -0.164,0.896 -0.186,0.254 -0.447,0.457 -0.781,0.609 C -3.013,-0.012 -3.5,0.15 -4.007,0.236 -4.513,0.322 -5.044,0.48 -5.598,0.71 -6.286,0.987 -6.823,1.366 -7.21,1.85 c -0.387,0.482 -0.557,1.087 -0.509,1.813 0.048,0.678 0.382,1.335 1.003,1.971 0.621,0.636 1.577,0.953 2.867,0.953 1.453,0 2.483,-0.438 3.09,-1.312 0.606,-0.874 0.886,-1.627 0.838,-2.257 l -1.835,0 c -0.01,0.477 -0.179,0.9 -0.509,1.268 -0.33,0.368 -0.847,0.552 -1.554,0.552 -0.717,0 -1.209,-0.139 -1.477,-0.415 C -5.563,4.146 -5.708,3.849 -5.727,3.533 -5.755,3.17 -5.624,2.882 -5.332,2.666 -5.041,2.451 -4.718,2.277 -4.364,2.144 -3.982,2.01 -3.512,1.88 -2.952,1.756 -2.394,1.632 -1.827,1.422 -1.254,1.125 -0.747,0.867 -0.329,0.492 0,0"
         style="fill:#ffffff;fill-opacity:1;fill-rule:nonzero;stroke:none"
         id="path5971"
         inkscape:connector-curvature="0" />
    </g>
    <path
       d="m -335.5216,-252.07685 2.2925,0 0,13.4575 -2.2925,0 0,-13.4575 z"
       style="fill:#ffffff;fill-opacity:1;fill-rule:nonzero;stroke:none"
       id="path5973"
       inkscape:connector-curvature="0" />
    <g
       id="g5975"
       transform="matrix(1.25,0,0,-1.25,-319.25225,-243.0996)"
       style="fill:#ffffff;fill-opacity:1">
      <path
         d="m 0,0 c -0.172,-0.841 -0.643,-1.696 -1.412,-2.566 -0.77,-0.87 -1.861,-1.304 -3.276,-1.304 -1.519,0 -2.72,0.527 -3.605,1.584 -0.884,1.056 -1.326,2.42 -1.326,4.092 0,1.673 0.442,3.034 1.326,4.086 0.885,1.05 2.086,1.576 3.605,1.576 1.482,0 2.595,-0.447 3.34,-1.34 0.746,-0.894 1.18,-1.699 1.305,-2.415 L -2.064,3.698 C -2.179,4.147 -2.435,4.597 -2.831,5.046 -3.228,5.495 -3.827,5.72 -4.63,5.72 -5.547,5.72 -6.279,5.361 -6.823,4.645 -7.368,3.928 -7.641,2.981 -7.641,1.806 c 0,-1.185 0.273,-2.141 0.818,-2.867 0.544,-0.726 1.276,-1.089 2.193,-1.089 0.765,0 1.359,0.236 1.784,0.71 0.426,0.472 0.705,0.953 0.839,1.44 L 0,0 Z"
         style="fill:#ffffff;fill-opacity:1;fill-rule:nonzero;stroke:none"
         id="path5977"
         inkscape:connector-curvature="0" />
    </g>
    <g
       id="g5979"
       transform="matrix(1.25,0,0,-1.25,-431.37373,-225.76072)"
       style="fill:#ffffff;fill-opacity:1">
      <path
         d="m 0,0 c 0.33,-0.492 0.461,-1.072 0.395,-1.741 -0.068,-0.803 -0.459,-1.513 -1.176,-2.129 -0.717,-0.616 -1.706,-0.925 -2.967,-0.925 -1.357,0 -2.436,0.433 -3.233,1.298 -0.798,0.864 -1.173,1.756 -1.125,2.673 l 1.835,0 c 0,-0.612 0.244,-1.135 0.73,-1.57 0.488,-0.435 1.085,-0.652 1.793,-0.652 0.648,0 1.148,0.119 1.497,0.358 0.349,0.239 0.566,0.55 0.652,0.932 0.078,0.344 0.022,0.643 -0.165,0.896 -0.185,0.254 -0.447,0.457 -0.781,0.609 -0.469,0.239 -0.955,0.401 -1.462,0.487 -0.507,0.086 -1.037,0.244 -1.591,0.474 -0.688,0.277 -1.226,0.656 -1.613,1.14 -0.387,0.482 -0.557,1.087 -0.508,1.813 0.047,0.678 0.381,1.335 1.003,1.971 0.621,0.636 1.577,0.953 2.866,0.953 1.454,0 2.483,-0.438 3.09,-1.312 0.607,-0.874 0.887,-1.627 0.838,-2.257 l -1.834,0 c -0.01,0.477 -0.18,0.9 -0.51,1.268 -0.329,0.368 -0.847,0.552 -1.554,0.552 -0.717,0 -1.209,-0.139 -1.477,-0.415 C -5.564,4.146 -5.708,3.849 -5.727,3.533 -5.756,3.17 -5.625,2.882 -5.332,2.666 -5.041,2.451 -4.719,2.277 -4.365,2.144 -3.982,2.01 -3.512,1.88 -2.953,1.756 -2.395,1.632 -1.828,1.422 -1.254,1.125 -0.748,0.867 -0.33,0.492 0,0"
         style="fill:#ffffff;fill-opacity:1;fill-rule:nonzero;stroke:none"
         id="path5981"
         inkscape:connector-curvature="0" />
    </g>
    <g
       id="g5983"
       transform="matrix(1.25,0,0,-1.25,-417.67497,-224.64135)"
       style="fill:#ffffff;fill-opacity:1">
      <path
         d="m 0,0 c -0.172,-0.841 -0.644,-1.696 -1.412,-2.566 -0.77,-0.87 -1.861,-1.304 -3.276,-1.304 -1.519,0 -2.721,0.527 -3.605,1.584 -0.885,1.056 -1.326,2.42 -1.326,4.092 0,1.673 0.441,3.034 1.326,4.086 0.884,1.05 2.086,1.576 3.605,1.576 1.481,0 2.594,-0.447 3.34,-1.34 0.745,-0.894 1.18,-1.699 1.305,-2.415 L -2.064,3.698 C -2.18,4.147 -2.436,4.597 -2.832,5.046 -3.229,5.495 -3.828,5.72 -4.631,5.72 -5.548,5.72 -6.279,5.361 -6.824,4.645 -7.369,3.928 -7.641,2.981 -7.641,1.806 c 0,-1.185 0.272,-2.141 0.817,-2.867 0.545,-0.726 1.276,-1.089 2.193,-1.089 0.765,0 1.36,0.236 1.785,0.71 0.425,0.472 0.705,0.953 0.838,1.44 L 0,0 Z"
         style="fill:#ffffff;fill-opacity:1;fill-rule:nonzero;stroke:none"
         id="path5985"
         inkscape:connector-curvature="0" />
    </g>
    <path
       d="m -415.7216,-233.6181 2.2925,0 0,13.4575 -2.2925,0 0,-13.4575 z"
       style="fill:#ffffff;fill-opacity:1;fill-rule:nonzero;stroke:none"
       id="path5987"
       inkscape:connector-curvature="0" />
    <g
       id="g5989"
       transform="matrix(1.25,0,0,-1.25,-410.93923,-220.16135)"
       style="fill:#ffffff;fill-opacity:1">
      <path
         d="m 0,0 0,10.766 7.512,0 0,-1.735 -5.662,0 0,-2.667 5.389,0 0,-1.719 -5.389,0 0,-2.911 L 7.67,1.749 7.67,0 0,0 Z"
         style="fill:#ffffff;fill-opacity:1;fill-rule:nonzero;stroke:none"
         id="path5991"
         inkscape:connector-curvature="0" />
    </g>
    <g
       id="g5993"
       transform="matrix(1.25,0,0,-1.25,-391.92797,-220.12597)"
       style="fill:#ffffff;fill-opacity:1">
      <path
         d="M 0,0 -4.271,7.684 -4.301,0 l -1.891,0 0,10.794 2.251,0 4.342,-7.684 0,7.684 1.878,0 L 2.279,0 0,0 Z"
         style="fill:#ffffff;fill-opacity:1;fill-rule:nonzero;stroke:none"
         id="path5995"
         inkscape:connector-curvature="0" />
    </g>
    <g
       id="g5997"
       transform="matrix(1.25,0,0,-1.25,-375.26297,-224.64135)"
       style="fill:#ffffff;fill-opacity:1">
      <path
         d="m 0,0 c -0.172,-0.841 -0.644,-1.696 -1.412,-2.566 -0.77,-0.87 -1.861,-1.304 -3.276,-1.304 -1.519,0 -2.721,0.527 -3.605,1.584 -0.885,1.056 -1.326,2.42 -1.326,4.092 0,1.673 0.441,3.034 1.326,4.086 0.884,1.05 2.086,1.576 3.605,1.576 1.481,0 2.594,-0.447 3.34,-1.34 0.745,-0.894 1.18,-1.699 1.305,-2.415 L -2.064,3.698 C -2.18,4.147 -2.436,4.597 -2.832,5.046 -3.229,5.495 -3.828,5.72 -4.631,5.72 -5.548,5.72 -6.279,5.361 -6.824,4.645 -7.369,3.928 -7.641,2.981 -7.641,1.806 c 0,-1.185 0.272,-2.141 0.817,-2.867 0.545,-0.726 1.276,-1.089 2.193,-1.089 0.765,0 1.36,0.236 1.785,0.71 0.425,0.472 0.705,0.953 0.838,1.44 L 0,0 Z"
         style="fill:#ffffff;fill-opacity:1;fill-rule:nonzero;stroke:none"
         id="path5999"
         inkscape:connector-curvature="0" />
    </g>
    <g
       id="g6001"
       transform="matrix(1.25,0,0,-1.25,-373.66872,-220.16135)"
       style="fill:#ffffff;fill-opacity:1">
      <path
         d="m 0,0 0,10.766 7.511,0 0,-1.735 -5.662,0 0,-2.667 5.389,0 0,-1.719 -5.389,0 0,-2.911 L 7.668,1.749 7.668,0 0,0 Z"
         style="fill:#ffffff;fill-opacity:1;fill-rule:nonzero;stroke:none"
         id="path6003"
         inkscape:connector-curvature="0" />
    </g>
    <path
       d="m -355.9491,-233.6181 2.295,0 0,13.4575 -2.295,0 0,-13.4575 z"
       style="fill:#ffffff;fill-opacity:1;fill-rule:nonzero;stroke:none"
       id="path6005"
       inkscape:connector-curvature="0" />
    <g
       id="g6007"
       transform="matrix(1.25,0,0,-1.25,-343.42465,-220.12597)"
       style="fill:#ffffff;fill-opacity:1">
      <path
         d="M 0,0 -4.271,7.684 -4.3,0 l -1.891,0 0,10.794 2.25,0 4.343,-7.684 0,7.684 1.877,0 L 2.279,0 0,0 Z"
         style="fill:#ffffff;fill-opacity:1;fill-rule:nonzero;stroke:none"
         id="path6009"
         inkscape:connector-curvature="0" />
    </g>
    <g
       id="g6011"
       transform="matrix(1.25,0,0,-1.25,-328.86645,-225.76072)"
       style="fill:#ffffff;fill-opacity:1">
      <path
         d="m 0,0 c 0.33,-0.492 0.461,-1.072 0.395,-1.741 -0.067,-0.803 -0.459,-1.513 -1.176,-2.129 -0.716,-0.616 -1.705,-0.925 -2.967,-0.925 -1.357,0 -2.435,0.433 -3.232,1.298 -0.798,0.864 -1.173,1.756 -1.125,2.673 l 1.834,0 c 0,-0.612 0.244,-1.135 0.732,-1.57 0.486,-0.435 1.084,-0.652 1.791,-0.652 0.65,0 1.149,0.119 1.498,0.358 0.35,0.239 0.566,0.55 0.652,0.932 0.077,0.344 0.022,0.643 -0.164,0.896 -0.187,0.254 -0.447,0.457 -0.781,0.609 -0.469,0.239 -0.957,0.401 -1.463,0.487 -0.506,0.086 -1.037,0.244 -1.592,0.474 -0.687,0.277 -1.224,0.656 -1.611,1.14 -0.388,0.482 -0.558,1.087 -0.51,1.813 0.048,0.678 0.383,1.335 1.004,1.971 0.621,0.636 1.576,0.953 2.867,0.953 1.452,0 2.482,-0.438 3.089,-1.312 C -0.152,4.401 0.127,3.648 0.08,3.018 l -1.836,0 c -0.01,0.477 -0.179,0.9 -0.508,1.268 -0.33,0.368 -0.848,0.552 -1.555,0.552 -0.717,0 -1.209,-0.139 -1.477,-0.415 C -5.563,4.146 -5.707,3.849 -5.727,3.533 -5.754,3.17 -5.623,2.882 -5.332,2.666 -5.041,2.451 -4.718,2.277 -4.364,2.144 -3.982,2.01 -3.512,1.88 -2.952,1.756 -2.393,1.632 -1.827,1.422 -1.254,1.125 -0.747,0.867 -0.329,0.492 0,0"
         style="fill:#ffffff;fill-opacity:1;fill-rule:nonzero;stroke:none"
         id="path6013"
         inkscape:connector-curvature="0" />
    </g>
    <g
       id="g6015"
       transform="matrix(1.25,0,0,-1.25,-321.20535,-231.41385)"
       style="fill:#ffffff;fill-opacity:1">
      <path
         d="m 0,0 0,-9.06 -1.878,0.015 0,9.045 -3.354,0 0,1.721 8.586,0 L 3.354,0 0,0 Z"
         style="fill:#ffffff;fill-opacity:1;fill-rule:nonzero;stroke:none"
         id="path6017"
         inkscape:connector-curvature="0" />
    </g>
    <path
       d="m -315.52535,-233.6181 2.29375,0 0,13.4575 -2.29375,0 0,-13.4575 z"
       style="fill:#ffffff;fill-opacity:1;fill-rule:nonzero;stroke:none"
       id="path6019"
       inkscape:connector-curvature="0" />
    <g
       id="g6021"
       transform="matrix(1.25,0,0,-1.25,-305.29475,-231.41385)"
       style="fill:#ffffff;fill-opacity:1">
      <path
         d="m 0,0 0,-9.06 -1.877,0.015 0,9.045 -3.355,0 0,1.721 8.586,0 L 3.354,0 0,0 Z"
         style="fill:#ffffff;fill-opacity:1;fill-rule:nonzero;stroke:none"
         id="path6023"
         inkscape:connector-curvature="0" />
    </g>
    <g
       id="g6025"
       transform="matrix(1.25,0,0,-1.25,-289.59755,-224.4266)"
       style="fill:#ffffff;fill-opacity:1">
      <path
         d="m 0,0 c 0,-1.1 -0.38,-1.993 -1.14,-2.681 -0.759,-0.688 -1.779,-1.032 -3.06,-1.032 -1.29,0 -2.311,0.344 -3.061,1.032 C -8.011,-1.993 -8.386,-1.1 -8.386,0 l 0.014,7.339 1.879,0 0,-6.838 c 0,-0.583 0.126,-1.142 0.379,-1.677 0.254,-0.535 0.891,-0.803 1.914,-0.803 1.022,0 1.663,0.27 1.921,0.81 0.258,0.54 0.387,1.097 0.387,1.67 L -1.907,7.339 0,7.339 0,0 Z"
         style="fill:#ffffff;fill-opacity:1;fill-rule:nonzero;stroke:none"
         id="path6027"
         inkscape:connector-curvature="0" />
    </g>
    <g
       id="g6029"
       transform="matrix(1.25,0,0,-1.25,-281.94745,-231.41385)"
       style="fill:#ffffff;fill-opacity:1">
      <path
         d="m 0,0 0,-9.06 -1.877,0.015 0,9.045 -3.355,0 0,1.721 8.586,0 L 3.354,0 0,0 Z"
         style="fill:#ffffff;fill-opacity:1;fill-rule:nonzero;stroke:none"
         id="path6031"
         inkscape:connector-curvature="0" />
    </g>
    <g
       id="g6033"
       transform="matrix(1.25,0,0,-1.25,-276.98405,-220.16135)"
       style="fill:#ffffff;fill-opacity:1">
      <path
         d="m 0,0 0,10.766 7.512,0 0,-1.735 -5.662,0 0,-2.667 5.389,0 0,-1.719 -5.389,0 0,-2.911 L 7.67,1.749 7.67,0 0,0 Z"
         style="fill:#ffffff;fill-opacity:1;fill-rule:nonzero;stroke:none"
         id="path6035"
         inkscape:connector-curvature="0" />
    </g>
  </g>
</svg>
