<?xml version="1.0" encoding="UTF-8" standalone="no"?>
<svg
   xmlns:dc="http://purl.org/dc/elements/1.1/"
   xmlns:cc="http://creativecommons.org/ns#"
   xmlns:rdf="http://www.w3.org/1999/02/22-rdf-syntax-ns#"
   xmlns:svg="http://www.w3.org/2000/svg"
   xmlns="http://www.w3.org/2000/svg"
   xmlns:sodipodi="http://sodipodi.sourceforge.net/DTD/sodipodi-0.dtd"
   xmlns:inkscape="http://www.inkscape.org/namespaces/inkscape"
   id="svg8"
   version="1.1"
   viewBox="0 0 85.148924 15.073155"
   height="15.073155mm"
   width="85.148926mm"
   sodipodi:docname="SAAVPedia.new.logo.56pt.svg"
   inkscape:version="0.91 r13725"
   style="enable-background:new">
  <sodipodi:namedview
     pagecolor="#ffffff"
     bordercolor="#666666"
     borderopacity="1"
     objecttolerance="10"
     gridtolerance="10"
     guidetolerance="10"
     inkscape:pageopacity="0"
     inkscape:pageshadow="2"
     inkscape:window-width="2511"
     inkscape:window-height="1056"
     id="namedview4495"
     showgrid="false"
     inkscape:zoom="0.75633418"
     inkscape:cx="443.65504"
     inkscape:cy="-19.838984"
     inkscape:window-x="49"
     inkscape:window-y="24"
     inkscape:window-maximized="1"
     inkscape:current-layer="text4452"
     fit-margin-top="0"
     fit-margin-left="0"
     fit-margin-right="0"
     fit-margin-bottom="0" />
  <defs
     id="defs2">
    <linearGradient
       id="linearGradient2831">
      <stop
         style="stop-color:#3465a4;stop-opacity:1;"
         offset="0"
         id="stop2833" />
      <stop
         id="stop2855"
         offset="0.33333334"
         style="stop-color:#5b86be;stop-opacity:1;" />
      <stop
         style="stop-color:#83a8d8;stop-opacity:0;"
         offset="1"
         id="stop2835" />
    </linearGradient>
    <linearGradient
       id="linearGradient8152">
      <stop
         style="stop-color:#3465a4;stop-opacity:1;"
         offset="0"
         id="stop8154" />
      <stop
         id="stop3174"
         offset="0.5"
         style="stop-color:#4f7eba;stop-opacity:1;" />
      <stop
         style="stop-color:#729fcf;stop-opacity:1;"
         offset="1"
         id="stop8156" />
    </linearGradient>
    <linearGradient
       id="linearGradient5313">
      <stop
         id="stop5315"
         offset="0"
         style="stop-color:#99b8df;stop-opacity:1" />
      <stop
         style="stop-color:#3969a8;stop-opacity:1;"
         offset="0.23705086"
         id="stop5333" />
      <stop
         style="stop-color:#4f7eba;stop-opacity:1;"
         offset="0.54706067"
         id="stop5317" />
      <stop
         id="stop5321"
         offset="0.74557692"
         style="stop-color:#96b6d7;stop-opacity:1" />
      <stop
         style="stop-color:#a0bddc;stop-opacity:1"
         offset="0.87321436"
         id="stop5331" />
      <stop
         id="stop5319"
         offset="1"
         style="stop-color:#729fcf;stop-opacity:1;" />
    </linearGradient>
    <linearGradient
       id="linearGradient3207">
      <stop
         style="stop-color:#eeeeec;stop-opacity:0.47058824;"
         offset="0"
         id="stop3209" />
      <stop
         style="stop-color:#eeeeec;stop-opacity:0;"
         offset="1"
         id="stop3211" />
    </linearGradient>
  </defs>
  <metadata
     id="metadata5">
    <rdf:RDF>
      <cc:Work
         rdf:about="">
        <dc:format>image/svg+xml</dc:format>
        <dc:type
           rdf:resource="http://purl.org/dc/dcmitype/StillImage" />
        <dc:title></dc:title>
      </cc:Work>
    </rdf:RDF>
  </metadata>
  <g
     style="display:inline"
     id="layer1"
     transform="translate(118.87429,-113.06331)">
    <g
       style="font-style:normal;font-weight:normal;line-height:0%;font-family:sans-serif;letter-spacing:0px;word-spacing:0px;fill:#000000;fill-opacity:1;stroke:none;stroke-width:1px;stroke-linecap:butt;stroke-linejoin:miter;stroke-opacity:1"
       id="text4452">
      <path
         d="m -98.755093,127.43283 c 2.192867,0 3.674533,-1.32362 3.674533,-3.53625 0,-3.95111 -4.346222,-5.27473 -4.346222,-7.44784 0,-0.43462 0.237067,-0.63218 0.612422,-0.63218 0.414867,0 0.651934,0.41487 0.671689,1.32362 0,0.27658 0.158045,0.41487 0.395111,0.41487 l 2.094089,0 c 0.256823,0 0.375356,-0.13829 0.375356,-0.41487 -0.07902,-2.52871 -1.4224,-4.01037 -3.595511,-4.01037 -2.034824,0 -3.437464,1.20509 -3.437464,3.31893 0,3.67453 4.306708,4.93889 4.306708,7.44784 0,0.49389 -0.237067,0.82974 -0.691444,0.82974 -0.5334,0 -0.809978,-0.47414 -0.849489,-1.52118 -0.01976,-0.25682 -0.158045,-0.39511 -0.395111,-0.39511 l -2.113844,0 c -0.25682,0 -0.37536,0.13829 -0.37536,0.41487 0.079,2.64724 1.44216,4.20793 3.674537,4.20793 z"
         style="font-size:19.75555611px;fill:#4285f4;fill-opacity:1"
         id="path4171" />
      <path
         d="m -93.537465,127.19576 2.113844,0 c 0.256822,0 0.395111,-0.13829 0.395111,-0.39511 l 0,-3.59551 1.461911,0 0,3.59551 c 0,0.25682 0.138289,0.39511 0.395112,0.39511 l 2.113844,0 c 0.256822,0 0.395111,-0.13829 0.395111,-0.39511 l 0,-9.85802 c 0,-2.29165 -1.461911,-3.81282 -3.635022,-3.81282 -2.173111,0 -3.635022,1.52117 -3.635022,3.81282 l 0,9.85802 c 0,0.25682 0.138288,0.39511 0.395111,0.39511 z m 2.508955,-6.65762 0,-3.83258 c 0,-0.5334 0.276578,-0.84949 0.730956,-0.84949 0.454378,0 0.730955,0.31609 0.730955,0.84949 l 0,3.83258 -1.461911,0 z"
         style="font-size:19.75555611px;fill:#34a853;fill-opacity:1"
         id="path4173" />
      <path
         d="m -84.778654,127.19576 2.113844,0 c 0.256822,0 0.395111,-0.13829 0.395111,-0.39511 l 0,-3.59551 1.461911,0 0,3.59551 c 0,0.25682 0.138289,0.39511 0.395112,0.39511 l 2.113844,0 c 0.256822,0 0.395111,-0.13829 0.395111,-0.39511 l 0,-9.85802 c 0,-2.29165 -1.461911,-3.81282 -3.635022,-3.81282 -2.173111,0 -3.635022,1.52117 -3.635022,3.81282 l 0,9.85802 c 0,0.25682 0.138288,0.39511 0.395111,0.39511 z m 2.508955,-6.65762 0,-3.83258 c 0,-0.5334 0.276578,-0.84949 0.730956,-0.84949 0.454378,0 0.730955,0.31609 0.730955,0.84949 l 0,3.83258 -1.461911,0 z"
         style="font-size:19.75555611px;fill:#ea4335;fill-opacity:1"
         id="path4175" />
      <path
         d="m -69.18442,113.36687 -2.192867,0 c -0.237066,0 -0.375355,0.11854 -0.414866,0.37536 l -1.205089,9.71973 -1.205089,-9.71973 c -0.01976,-0.25682 -0.1778,-0.37536 -0.414867,-0.37536 l -2.192867,0 c -0.256822,0 -0.395111,0.13829 -0.3556,0.41487 l 2.054578,12.40649 c 0.09878,0.7112 0.5334,1.10631 1.264356,1.10631 l 1.718733,0 c 0.730956,0 1.165578,-0.37536 1.264356,-1.10631 l 2.034822,-12.40649 c 0.03951,-0.27658 -0.09878,-0.41487 -0.3556,-0.41487 z"
         style="font-size:19.75555611px;fill:#fbbc05;fill-opacity:1"
         id="path4177" />
      <path
         d="m -64.801158,117.08092 c -2.015066,0 -3.3782,1.03768 -3.3782,2.60172 l 0,7.80515 c 0,0.1955 0.138289,0.30078 0.395111,0.30078 l 1.9558,0 c 0.256823,0 0.395111,-0.10528 0.395111,-0.30078 l 0,-2.72202 c 0.3556,0.13534 0.730956,0.1955 1.106312,0.1955 1.560689,0 2.904066,-1.03768 2.904066,-2.60172 l 0,-2.67691 c 0,-1.56404 -1.363133,-2.60172 -3.3782,-2.60172 z m 0.632178,5.41398 c 0,0.31581 -0.237067,0.51132 -0.632178,0.51132 -0.395111,0 -0.632178,-0.19551 -0.632178,-0.51132 l 0,-2.94761 c 0,-0.31582 0.237067,-0.51132 0.632178,-0.51132 0.395111,0 0.632178,0.1955 0.632178,0.51132 l 0,2.94761 z"
         style="font-size:19.75555611px;fill:#333333;fill-opacity:1"
         id="path4179"
         inkscape:connector-curvature="0" />
      <path
         d="m -56.991848,127.43283 c 1.876778,0 3.180645,-1.18533 3.338689,-2.98309 0.01976,-0.25682 -0.118533,-0.39511 -0.375355,-0.39511 l -1.9558,0 c -0.237067,0 -0.3556,0.11853 -0.414867,0.37535 -0.09878,0.27658 -0.276578,0.43463 -0.553156,0.43463 -0.375355,0 -0.572911,-0.25683 -0.572911,-0.67169 l 0,-0.69145 0.671689,0 c 1.975556,0 3.318934,-1.2446 3.318934,-3.12137 0,-2.01507 -1.461911,-3.33869 -3.3782,-3.29918 -1.975556,0 -3.299178,1.30386 -3.358445,3.29918 l 0,3.63502 c 0,2.05458 1.323622,3.41771 3.279422,3.41771 z m -0.5334,-6.32178 0,-0.79022 c 0,-0.41487 0.217311,-0.67169 0.612423,-0.67169 0.395111,0 0.632177,0.23707 0.632177,0.79022 0,0.45438 -0.217311,0.67169 -0.572911,0.67169 l -0.671689,0 z"
         style="font-size:19.75555611px;fill:#333333;fill-opacity:1"
         id="path4181" />
      <path
         d="m -46.193892,113.36687 -1.936045,0 c -0.256822,0 -0.395111,0.13829 -0.395111,0.39511 l 0,3.61527 c -0.276577,-0.19755 -0.651933,-0.29633 -1.185333,-0.29633 -1.718733,0 -2.805289,1.36313 -2.805289,3.41771 l 0,3.51649 c 0,2.05458 1.343378,3.41771 3.358445,3.41771 2.015066,0 3.358444,-1.36313 3.358444,-3.41771 l 0,-10.25314 c 0,-0.25682 -0.138289,-0.39511 -0.395111,-0.39511 z m -2.331156,10.82605 c 0,0.41486 -0.237066,0.67169 -0.632177,0.67169 -0.395112,0 -0.632178,-0.25683 -0.632178,-0.67169 l 0,-3.87209 c 0,-0.41487 0.237066,-0.67169 0.632178,-0.67169 0.395111,0 0.632177,0.25682 0.632177,0.67169 l 0,3.87209 z"
         style="font-size:19.75555611px;fill:#333333;fill-opacity:1"
         id="path4183" />
      <path
         d="m -42.814458,116.17216 c 0.829734,0 1.481667,-0.69144 1.481667,-1.48166 0,-0.84949 -0.651933,-1.48167 -1.481667,-1.48167 -0.869244,0 -1.481666,0.63218 -1.481666,1.48167 0,0.82973 0.612422,1.48166 1.481666,1.48166 z m -0.968022,11.0236 1.936045,0 c 0.256822,0 0.395111,-0.13829 0.395111,-0.39511 l 0,-9.08755 c 0,-0.25683 -0.138289,-0.39512 -0.395111,-0.39512 l -1.936045,0 c -0.256822,0 -0.395111,0.13829 -0.395111,0.39512 l 0,9.08755 c 0,0.25682 0.138289,0.39511 0.395111,0.39511 z"
         style="font-size:19.75555611px;fill:#333333;fill-opacity:1"
         id="path4185" />
      <path
         d="m -36.906931,127.43283 c 2.054578,0 3.220156,-1.28411 3.220156,-3.23991 l 0,-3.69429 c 0,-2.05458 -1.303867,-3.41771 -3.259667,-3.41771 -1.857022,0 -3.141133,1.18533 -3.299178,3.00284 -0.01975,0.25682 0.118533,0.39511 0.375356,0.39511 l 1.916289,0 c 0.256822,0 0.375355,-0.0395 0.395111,-0.27657 0.01975,-0.29634 0.138289,-0.55316 0.572911,-0.55316 0.375355,0 0.572911,0.25682 0.572911,0.67169 l 0,0.69144 -0.671689,0 c -1.9558,0 -3.299178,1.2446 -3.299178,3.04236 0,2.01507 1.382889,3.3782 3.476978,3.3782 z m -0.03951,-2.58798 c -0.434622,0 -0.691445,-0.29633 -0.691445,-0.79022 0,-0.43462 0.256823,-0.69145 0.730956,-0.69145 l 0.493889,0 0,0.84949 c 0,0.39511 -0.1778,0.63218 -0.5334,0.63218 z"
         style="font-size:19.75555611px;fill:#333333;fill-opacity:1"
         id="path4187" />
    </g>
    <g
       transform="matrix(0,0.34719241,-0.39417792,0,-102.81413,112.11795)"
       id="g4652"
       style="opacity:1">
      <g
         style="fill:#ea4335;fill-opacity:1"
         id="g6"
         transform="matrix(0,-0.66154664,0.74931252,0,0.07705412,44.05116)">
        <path
           style="fill:#ea4335;fill-opacity:1"
           inkscape:connector-curvature="0"
           id="path2"
           d="m 32.5,4.999 c -5.405,0 -10.444,1.577 -14.699,4.282 l -5.75,-5.75 0,16.11 16.11,0 -6.395,-6.395 c 3.18,-1.787 6.834,-2.82 10.734,-2.82 12.171,0 22.073,9.902 22.073,22.074 0,2.899 -0.577,5.664 -1.599,8.202 l 4.738,2.762 C 59.182,40.101 60,36.396 60,32.5 60,17.336 47.663,4.999 32.5,4.999 Z" />
        <path
           style="fill:#34a853;fill-opacity:1"
           inkscape:connector-curvature="0"
           id="path4"
           d="m 43.227,51.746 c -3.179,1.786 -6.826,2.827 -10.726,2.827 -12.171,0 -22.073,-9.902 -22.073,-22.073 0,-2.739 0.524,-5.35 1.439,-7.771 L 7.136,21.878 C 5.761,25.149 5,28.736 5,32.5 5,47.664 17.336,60 32.5,60 c 5.406,0 10.434,-1.584 14.691,-4.289 l 5.758,5.759 0,-16.112 -16.111,0 z" />
      </g>
    </g>
  </g>
</svg>
